<svg width="300" height="50" viewBox="0 0 300 50" fill="none" xmlns="http://www.w3.org/2000/svg">
<g clip-path="url(#clip0_426_219)">
<path d="M68.2854 25.3678L67.6817 24.9844C65.6337 22.9445 62.7861 22.0552 58.9757 22.2836C55.8018 22.4795 53.2887 23.736 51.3631 24.9028C51.3631 24.8701 51.3631 24.8457 51.3631 24.813C51.3631 23.8176 51.4773 22.7406 51.5834 21.6962C51.6895 20.6355 51.8119 19.5503 51.8119 18.5304C51.8119 17.5105 51.6976 16.4906 51.3305 15.642C51.2407 15.4217 51.0367 15.2993 50.7838 15.2993C49.7557 15.3238 47.7567 16.0255 47.2672 16.4498L47.0061 17.0291C46.9898 18.1632 46.7368 21.3372 46.4839 21.7207C46.492 21.7043 46.3533 22.1041 46.3533 22.1041C45.9209 26.6325 45.9127 30.6061 46.3125 34.0248C46.3615 34.3675 47.0142 34.8816 47.5283 35.0692C48.0831 35.2732 49.8292 34.8081 50.8328 34.4328C50.8164 34.4328 51.2081 34.3757 51.2081 34.3757C51.5263 34.3431 51.714 34.0738 51.6976 33.7148L51.7221 32.7357C52.4483 29.7902 55.3856 26.2654 58.8533 25.735C60.8197 25.425 62.37 25.9308 63.5939 27.2608C63.7571 27.4974 64.1161 29.627 62.8269 32.0585C61.8641 33.8617 59.9385 35.3874 57.401 36.3339C55.0022 37.2478 52.3585 37.6149 49.103 37.5007C48.9643 37.4109 46.0514 35.4364 46.0514 35.4364C43.4649 33.6169 40.2502 31.3568 37.3373 30.2553C36.8233 30.0594 35.9095 29.2925 35.3546 28.8437L35.0527 28.5989C33.3719 27.2526 30.1735 25.1231 27.6115 23.4096C27.6115 23.4096 26.4529 22.6345 26.2326 22.4795C26.2326 22.3816 26.2326 22.1857 26.2326 22.1857C26.306 22.1041 27.9215 21.1413 27.9215 21.1413C30.1817 19.8195 31.226 19.175 31.4463 18.8404C31.3974 18.8975 31.7482 18.6609 31.7482 18.6609C31.7727 18.6528 37.3455 15.4951 37.3455 15.4951C42.7225 12.5415 48.8093 9.188 52.0077 5.8835L52.1627 5.37762L52.2362 4.92886C52.4483 4.219 52.4565 3.68049 52.2851 3.05223C52.2362 2.87272 52.073 2.66058 51.8527 2.62795C49.3559 2.37501 46.133 3.87632 43.2039 6.62599C42.543 7.2461 41.9881 7.54799 41.4007 7.8662L40.9519 8.11914C37.7208 9.95498 30.4428 14.4752 26.6242 16.9148C26.8772 12.8189 27.636 6.985 28.5661 2.13023L28.4601 1.55092L28.0684 0.816587L27.7747 0.294393L27.6931 0.269915C26.9343 -0.113571 26.3142 0.0414557 25.8572 0.155686L25.0984 0.433101L24.0785 0.800268C23.8745 0.841065 23.7358 0.963454 23.6624 1.15928C21.8429 5.55713 20.3253 12.7944 19.9663 18.5793C16.3272 16.2703 12.9656 14.6058 11.3174 13.798L11.2685 13.7735L11.0727 13.7327C10.477 13.6593 9.75901 13.2187 9.06547 12.7944C8.99204 12.7536 7.6784 11.8969 7.6784 11.8969L5.56515 10.5424L5.01032 10.4119C4.10464 10.5669 2.35856 11.7419 1.84452 12.5415C1.77925 12.6475 1.74661 12.7618 1.74661 12.876C1.74661 13.0473 1.79557 13.2105 1.84452 13.3819L1.93427 13.8143L2.03218 14.0754C3.04393 15.1116 5.60594 16.8414 8.11084 18.1877L11.0155 19.7298L15.4623 22.1613L16.2212 22.765L16.7433 23.0669C16.7433 23.0669 16.8005 23.0996 16.8413 23.124C15.6582 23.9155 8.74726 28.5255 8.74726 28.5255L4.49628 31.3486C4.09648 31.626 2.41567 32.3767 2.04034 32.5235C1.11835 32.8989 0.41665 33.4782 0.131075 34.0983L0.0168457 34.3431L0.131075 34.5062L0.457446 34.751L0.889887 35.0366L1.36312 35.3548L1.80373 35.4282C2.55438 35.4527 3.65588 35.0284 5.72833 34.1227C7.62944 33.2823 12.7943 30.1655 15.0054 28.8355L15.9437 28.2726C16.3354 28.3052 16.7597 27.9788 17.1431 27.6851C17.5837 27.3342 18.5465 26.7386 19.134 26.4775C19.1503 26.4775 19.4849 26.2817 19.8031 26.1103C19.8031 26.2083 19.8031 26.3633 19.8031 26.3633C19.901 33.1192 20.2845 38.031 21.027 41.8169V41.8822L21.1086 42.0372C21.4676 42.5676 21.8837 44.175 22.2509 45.5865L23.0913 48.4096L23.3279 48.6707C23.8093 48.9971 25.2698 49.5601 26.2489 49.4459L26.4937 49.4132L26.6487 49.0705C26.7303 48.6463 26.7629 48.2301 26.7629 47.7732C26.7629 47.2592 26.7221 46.688 26.6813 45.9945L26.6161 44.9746C26.306 40.2585 25.996 33.4455 25.996 28.9171V28.5581C26.8037 29.0558 30.304 31.267 30.304 31.267C36.2685 35.1345 45.2845 40.9847 50.7267 42.5268C51.0123 42.6084 51.306 42.5431 51.5181 42.3473C51.5181 42.3391 52.3586 41.8088 52.3586 41.8088L52.5136 41.7435C52.8236 41.5966 53.0358 41.0663 53.0684 40.4951C57.6621 40.2667 64.0589 38.4961 67.4858 34.188C68.8076 32.5154 69.4114 30.4756 69.4114 28.7295C69.4114 27.2934 69.0116 26.0532 68.2936 25.376" fill="#F8B500"/>
<path d="M179.798 21.4426V26.7216H192.175V40.4537H187.949V30.377H163.104V26.7216H175.579V21.4426H160.509V17.7954H187.753V10.4928H163.561V6.86194H191.988V17.7709H195.015V21.4426H179.798Z" fill="white"/>
<path d="M215.086 20.5777H203.476V11.0314H215.086V20.5777ZM219.288 7.35968H199.266V24.2657H219.288V7.35968Z" fill="white"/>
<path d="M229.643 40.3231H203.076V27.8965H207.311V36.6596H229.643V40.3231Z" fill="white"/>
<path d="M229.324 6.55191H225.114V28.7451H229.324V6.55191Z" fill="white"/>
<path d="M267.559 27.8884V24.2412H233.078V27.8884H236.806V40.315H264.393V36.6678H241.017V27.8884H267.559Z" fill="white"/>
<path d="M250.318 18.5134C245.953 18.5134 242.428 17.0039 242.428 13.626C242.428 10.248 245.953 8.75489 250.318 8.75489C254.683 8.75489 258.208 10.2888 258.208 13.626C258.208 16.9631 254.667 18.5134 250.318 18.5134ZM250.318 4.90372C243.513 4.90372 237.99 7.78394 237.99 13.6341C237.99 19.4843 243.513 22.3727 250.318 22.3727C257.123 22.3727 262.655 19.4517 262.655 13.6341C262.655 7.81658 257.131 4.90372 250.318 4.90372Z" fill="white"/>
<path d="M289.344 23.1887H293.44V16.5225H295.782V24.2657H299.886V6.55191H295.782V13.0059H293.44V6.55191H289.344V23.1887Z" fill="white"/>
<path d="M287.459 8.04505H280.001V5.07507H275.791V8.04505H268.277V11.6188H271.279C269.786 12.7611 268.864 14.4256 268.864 16.6286C268.864 21.2223 272.895 23.5395 277.864 23.5395C282.833 23.5395 286.863 21.2141 286.863 16.6286C286.863 14.4256 285.941 12.7611 284.448 11.6188H287.451V8.04505H287.459ZM277.872 19.6802C275.294 19.6802 273.213 18.5705 273.213 16.0656C273.213 13.5607 275.294 12.4347 277.872 12.4347C280.45 12.4347 282.523 13.577 282.523 16.0656C282.523 18.5542 280.434 19.6802 277.872 19.6802Z" fill="white"/>
<path d="M287.835 37.9896C283.527 37.9896 280.034 36.4801 280.034 33.0859C280.034 29.6916 283.527 28.1903 287.835 28.1903C292.143 28.1903 295.635 29.7242 295.635 33.0859C295.635 36.4475 292.143 37.9896 287.835 37.9896ZM287.851 24.4207C281.128 24.4207 275.686 27.2765 275.686 33.1022C275.686 38.9279 281.12 41.7755 287.851 41.7755C294.582 41.7755 300.008 38.8708 300.008 33.1022C300.008 27.3336 294.566 24.4207 287.851 24.4207Z" fill="white"/>
<path d="M121.581 6.91907H138.104C145.961 6.91907 150.073 9.53003 150.073 15.2334C150.073 19.2885 147.242 22.0872 143.473 22.846V22.9847C148.882 23.6293 151.436 27.1704 151.436 31.1766C151.436 36.2027 147.764 40.5353 138.626 40.5353H121.581V6.91907ZM126.942 21.0836H137.843C141.898 21.0836 144.884 19.5496 144.884 15.9677C144.884 12.8427 143.407 10.7539 137.223 10.7539H126.934V21.0836H126.942ZM126.942 36.7249H137.508C144.068 36.7249 145.806 34.1629 145.806 30.9073C145.806 27.048 143.138 24.9103 137.223 24.9103H126.934V36.733L126.942 36.7249Z" fill="white"/>
<path d="M85.2236 6.91907H90.5924V21.9648L108.657 6.91907H116.262L97.1688 22.1035L117.844 40.5434H110.248L90.5924 22.5278V40.5434H85.2236V6.91907Z" fill="white"/>
</g>
<defs>
<clipPath id="clip0_426_219">
<rect width="300" height="49.437" fill="white"/>
</clipPath>
</defs>
</svg>
